<svg width="89" height="58" viewBox="0 0 89 58" fill="none" xmlns="http://www.w3.org/2000/svg">
<g clip-path="url(#clip0_678_2018)">
<path d="M10.7486 36.343L15.7685 31.7531C16.6405 30.9558 16.739 29.6287 16.1457 28.6069C9.55038 17.248 19.5048 2.18444 31.6642 2.18311C44.0622 2.18175 53.183 8.88102 51.3773 25.9592C49.8502 40.4017 27.2079 41.646 11.9649 40.1584C10.0537 39.9719 9.33147 37.6389 10.7486 36.343Z" fill="#FFF9DB" stroke="#FEED8A" stroke-width="3"/>
<circle cx="38.7267" cy="14.4042" r="2.03995" fill="#515151"/>
<circle cx="27.5758" cy="14.4042" r="2.03995" fill="#515151"/>
<path d="M33.1216 14.7114C31.3869 14.7114 30.2305 15.3956 30.2305 16.0052C30.2305 17.0053 31.3752 18.2326 33.2315 18.2326C35.0878 18.2326 36.0507 16.8041 36.0507 16.0052C36.0507 15.4761 34.8563 14.7114 33.1216 14.7114Z" fill="#FF9C00"/>
<ellipse cx="25.243" cy="18.2333" rx="2.05404" ry="1.7606" fill="#F57F00" fill-opacity="0.3"/>
<ellipse cx="41.088" cy="18.2333" rx="2.05404" ry="1.7606" fill="#F57F00" fill-opacity="0.3"/>
<path d="M80.0661 52.2415L75.0462 47.6515C74.1742 46.8542 74.0757 45.5271 74.669 44.5054C81.2643 33.1465 71.3099 18.0829 59.1505 18.0815C46.7525 18.0802 37.6317 24.7795 39.4374 41.8576C40.9645 56.3001 63.6068 57.5445 78.8498 56.0569C80.761 55.8703 81.4832 53.5373 80.0661 52.2415Z" fill="#FEED8A" stroke="#E5D57C" stroke-width="3"/>
<circle cx="62.9643" cy="31.7284" r="2.03995" fill="#515151"/>
<circle cx="51.8136" cy="31.7284" r="2.03995" fill="#515151"/>
<path d="M57.3589 32.0352C55.6242 32.0352 54.4678 32.7193 54.4678 33.329C54.4678 34.329 55.6125 35.5564 57.4688 35.5564C59.3251 35.5564 60.288 34.1278 60.288 33.329C60.288 32.7998 59.0936 32.0352 57.3589 32.0352Z" fill="#F57F00"/>
<ellipse cx="49.4808" cy="35.5575" rx="2.05404" ry="1.7606" fill="#F57F00" fill-opacity="0.3"/>
<ellipse cx="65.3255" cy="35.5575" rx="2.05404" ry="1.7606" fill="#F57F00" fill-opacity="0.3"/>
</g>
<defs>
<clipPath id="clip0_678_2018">
<rect width="89" height="58" fill="white"/>
</clipPath>
</defs>
</svg>
